<svg width="100" xmlns="http://www.w3.org/2000/svg" height="105" id="screenshot-85146560-c3e2-80e4-8007-34fa4bf9e26e" viewBox="-0 0 100 105" xmlns:xlink="http://www.w3.org/1999/xlink" fill="none" version="1.1"><g id="shape-85146560-c3e2-80e4-8007-34fa4bf9e26e" rx="0" ry="0"><g id="shape-578ee54a-c35f-8009-8007-34feb67408bf"><g class="fills" id="fills-578ee54a-c35f-8009-8007-34feb67408bf"><ellipse cx="50" cy="50" rx="50" ry="50" transform="matrix(1.000000, 0.000000, 0.000000, 1.000000, 0.000000, 0.000000)" style="fill: rgb(0, 0, 0); fill-opacity: 1;"/></g></g><g id="shape-85146560-c3e2-80e4-8007-34f73643fcf4"><g class="fills" id="fills-85146560-c3e2-80e4-8007-34f73643fcf4"><path d="M55.463409423828125,52.346153259277344L55.463409423828125,58L44.999996185302734,58C43.3442497253418,58,41.999996185302734,56.65574645996094,41.999996185302734,55L41.999996185302734,31C41.999996185302734,29.344255447387695,43.3442497253418,28,44.999996185302734,28L87,28C88.6557388305664,28,90,29.344255447387695,90,31L90,55C90,56.65574645996094,88.6557388305664,58,87,58L85.31707000732422,58L85.31707000732422,52.346153259277344C85.31707000732422,50.69041061401367,83.97281646728516,49.346153259277344,82.31707000732422,49.346153259277344L58.463409423828125,49.346153259277344C56.80766677856445,49.346153259277344,55.463409423828125,50.69041061401367,55.463409423828125,52.346153259277344M54.87804412841797,44.153846740722656L54.87804412841797,46.46154022216797L80.04877471923828,46.46154022216797L80.04877471923828,44.153846740722656L54.87804412841797,44.153846740722656M54.87804412841797,39.53845977783203L54.87804412841797,41.846153259277344L74.78048706054688,41.846153259277344L74.78048706054688,39.53845977783203L54.87804412841797,39.53845977783203M54.87804412841797,34.92307662963867L54.87804412841797,37.230770111083984L77.70731353759766,37.230770111083984L77.70731353759766,34.92307662963867L54.87804412841797,34.92307662963867M54.87804412841797,30.30769157409668L54.87804412841797,32.615386962890625L85.31707000732422,32.615386962890625L85.31707000732422,30.30769157409668L54.87804412841797,30.30769157409668" style="fill: rgb(177, 178, 181); fill-opacity: 1;"/></g></g><g id="shape-85146560-c3e2-80e4-8007-34f7570af64b"><g class="fills" id="fills-85146560-c3e2-80e4-8007-34f7570af64b"><rect rx="1.499999999999993" ry="1.499999999999993" x="60.999996185302734" y="54" transform="matrix(1.000000, 0.000000, 0.000000, 1.000000, 0.000000, 0.000000)" width="23.000000000000014" height="2.999999999999986" style="fill: rgb(255, 255, 255); fill-opacity: 1;"/></g></g><g id="shape-85146560-c3e2-80e4-8007-34f5b1dacef5"><g class="fills" id="fills-85146560-c3e2-80e4-8007-34f5b1dacef5"><ellipse cx="31.500000807226485" cy="55.75" rx="4.232191601329298" ry="4.2499999999999964" transform="matrix(1.000000, 0.000000, 0.000000, 1.000000, 0.000000, 0.000000)" style="fill: rgb(255, 255, 255); fill-opacity: 1;"/></g></g><g id="shape-85146560-c3e2-80e4-8007-34f70690ede2"><g class="fills" id="fills-85146560-c3e2-80e4-8007-34f70690ede2"><path d="M31.5,38.75C24.87760353088379,38.75,19.13825225830078,42.57687759399414,16.35714340209961,48.14670944213867L12.571428298950195,46.245887756347656C16.047815322875977,39.283599853515625,23.222003936767578,34.5,31.5,34.5C39.77799606323242,34.5,46.952186584472656,39.283599853515625,50.42857360839844,46.24589157104492L46.642860412597656,48.14671325683594C43.861751556396484,42.57687759399414,38.122398376464844,38.75,31.5,38.75M31.5,47.25C28.188800811767578,47.25,25.31912612915039,49.1634407043457,23.928571701049805,51.94835662841797L20.142858505249023,50.04753494262695C22.228689193725586,45.87015914916992,26.533203125,43,31.5,43C36.466796875,43,40.77131271362305,45.87015914916992,42.85714340209961,50.04753494262695L39.07142639160156,51.94835662841797C37.68087387084961,49.1634407043457,34.81119918823242,47.25,31.5,47.25M31.5,30.25C21.566404342651367,30.25,12.957377433776855,35.990318298339844,8.785713195800781,44.34506607055664L4.999999046325684,42.444244384765625C9.866941452026367,32.69703674316406,19.910804748535156,26,31.5,26C43.089195251464844,26,53.133060455322266,32.69703674316406,58.000003814697266,42.444244384765625L54.21428680419922,44.34506607055664C50.04262161254883,35.990318298339844,41.433597564697266,30.25,31.5,30.25" style="fill: rgb(177, 178, 181); fill-opacity: 1;"/></g></g><g id="shape-578ee54a-c35f-8009-8007-34febef34afe"><g class="fills" id="fills-578ee54a-c35f-8009-8007-34febef34afe"><path d="M84.05138397216797,86.59982299804688C75.12156677246094,94.91239929199219,63.150230407714844,100,50,100C36.849769592285156,100,24.878435134887695,94.91239929199219,15.948612213134766,86.59982299804688L50,0L84.05138397216797,86.59982299804688M50,0C50,0,50,0,50,0" style="fill: rgb(255, 255, 255); fill-opacity: 1;"/></g><g id="strokes-d482a9fd-babc-8062-8007-34fee889a8c5-578ee54a-c35f-8009-8007-34febef34afe" class="strokes"><g class="stroke-shape"><path d="M84.05138397216797,86.59982299804688C75.12156677246094,94.91239929199219,63.150230407714844,100,50,100C36.849769592285156,100,24.878435134887695,94.91239929199219,15.948612213134766,86.59982299804688L50,0L84.05138397216797,86.59982299804688M50,0C50,0,50,0,50,0" style="fill: none; stroke-width: 0; stroke: rgb(255, 255, 255); stroke-opacity: 1;"/></g></g></g><g id="shape-578ee54a-c35f-8009-8007-34feaf3b1c2a"><g class="fills" id="fills-578ee54a-c35f-8009-8007-34feaf3b1c2a"><path d="M79.4603271484375,90.39225769042969C71.19579315185547,96.43291473388672,61.01117706298828,100,50,100C38.98882293701172,100,28.80420684814453,96.43291473388672,20.539670944213867,90.39225769042969L50,5L79.4603271484375,90.39225769042969" style="fill: rgb(0, 0, 0); fill-opacity: 1;"/></g></g></g></svg>